# xmcd CD database file
#
# Track frame offsets:
#	150
#	13723
#	21747
#	37291
#	50360
#	68088
#	82434
#	97263
#	112539
#	126953
#	144383
#	159266
#	172539
#	184362
#	197222
#	212636
#	228380
#	245716
#	260400
#	276330
#	290301
#	307750
#	320980
#
# Disc length: 4395 seconds
#
# Revision: 0
# Processed by: cddbd v1.5.2PL0 Copyright (c) Steve Scherf et al.
# Submitted via: CDex 1.70beta2
#
DISCID=59112917
DTITLE=George R. R. Martin - A Storm of Swords - Disc 30
DYEAR=2000
DGENRE=Audiobook
TTITLE0=d30t01
TTITLE1=d30t02
TTITLE2=d30t03
TTITLE3=d30t04
TTITLE4=d30t05
TTITLE5=d30t06
TTITLE6=d30t07
TTITLE7=d30t08
TTITLE8=d30t09
TTITLE9=d30t10
TTITLE10=d30t11
TTITLE11=d30t12
TTITLE12=d30t13
TTITLE13=d30t14
TTITLE14=d30t15
TTITLE15=d30t16
TTITLE16=d30t17
TTITLE17=d30t18
TTITLE18=d30t19
TTITLE19=d30t20
TTITLE20=d30t21
TTITLE21=d30t22
TTITLE22=d30t23
EXTD=YEAR: 2000
EXTT0=
EXTT1=
EXTT2=
EXTT3=
EXTT4=
EXTT5=
EXTT6=
EXTT7=
EXTT8=
EXTT9=
EXTT10=
EXTT11=
EXTT12=
EXTT13=
EXTT14=
EXTT15=
EXTT16=
EXTT17=
EXTT18=
EXTT19=
EXTT20=
EXTT21=
EXTT22=
PLAYORDER=
